<?xml version="1.0" standalone="no"?>
<!DOCTYPE svg PUBLIC "-//W3C//DTD SVG 20010904//EN"
 "http://www.w3.org/TR/2001/REC-SVG-20010904/DTD/svg10.dtd">
<svg version="1.0" xmlns="http://www.w3.org/2000/svg"
 width="512.000000pt" height="512.000000pt" viewBox="0 0 512.000000 512.000000"
 preserveAspectRatio="xMidYMid meet">

<g transform="translate(0.000000,512.000000) scale(0.100000,-0.100000)"
fill="#000000" stroke="none">
<path d="M3373 4994 c-29 -14 -61 -38 -72 -52 -10 -15 -64 -124 -120 -242 -56
-118 -111 -224 -122 -235 -19 -20 -36 -20 -1332 -25 l-1312 -5 -67 -33 c-108
-53 -179 -148 -198 -268 -13 -80 -13 -3648 0 -3728 19 -120 90 -215 198 -268
l67 -33 2145 0 2145 0 67 33 c111 54 181 151 199 274 12 87 12 4235 -1 4312
-19 119 -83 207 -188 258 l-67 33 -645 3 -645 3 -52 -27z m1345 -110 c47 -19
88 -58 115 -109 22 -40 22 -43 25 -818 l3 -779 -23 7 c-94 29 -175 103 -208
192 -19 52 -20 77 -20 663 l0 609 -407 3 c-369 4 -413 6 -458 23 -67 25 -156
114 -178 178 l-16 47 565 0 c488 0 570 -2 602 -16z m-330 -945 c62 -21 62 -21
62 -424 l0 -365 -1179 0 -1180 0 -25 23 c-15 12 -69 113 -125 232 -108 228
-149 287 -216 310 -32 11 -139 14 -547 15 l-508 0 0 78 c0 84 14 113 60 131
36 14 3617 15 3658 0z m-2679 -346 c11 -10 66 -115 122 -233 56 -118 113 -230
127 -249 13 -18 48 -44 76 -57 l51 -24 1284 0 c945 0 1294 -3 1322 -12 51 -15
114 -69 142 -122 l22 -41 0 -1230 0 -1230 -22 -40 c-28 -52 -78 -100 -125
-119 -33 -14 -264 -16 -2151 -16 l-2113 0 -51 25 c-28 15 -63 42 -78 61 -58
77 -55 -15 -53 1629 l3 1510 22 40 c27 51 57 79 113 104 44 20 63 21 666 21
578 0 623 -1 643 -17z"/>
</g>
</svg>
