<svg width="512" height="512" version="1.1" xmlns="http://www.w3.org/2000/svg" desc="Created with imagetracer.js version 1.2.6" ><path fill="rgb(252,116,88)" stroke="rgb(252,116,88)" stroke-width="1" opacity="1" d="M 355 21 L 462.5 21 Q 464 23.5 469.5 22 L 475.5 25 L 482 31.5 L 486 41.5 L 486 194 Q 473.9 191.4 467 182.5 L 461 169.5 L 461 47 L 384.5 47 L 370.5 43 L 360 33.5 Q 355.5 28.6 355 21 Z " /><path fill="rgb(252,71,35)" stroke="rgb(252,71,35)" stroke-width="1" opacity="1" d="M 345.5 21 L 355 21.5 L 345.5 22 L 345.5 21 Z " /><path fill="rgb(252,71,35)" stroke="rgb(252,71,35)" stroke-width="1" opacity="1" d="M 342.5 22 L 341.5 24 L 342.5 22 Z " /><path fill="rgb(252,71,35)" stroke="rgb(252,71,35)" stroke-width="1" opacity="1" d="M 339.5 25 L 338.5 27 L 339.5 25 Z " /><path fill="rgb(252,71,35)" stroke="rgb(252,71,35)" stroke-width="1" opacity="1" d="M 336.5 30 L 337 31.5 L 333.5 38 L 333 36.5 L 336.5 30 Z " /><path fill="rgb(252,71,35)" stroke="rgb(252,71,35)" stroke-width="1" opacity="1" d="M 327.5 49 L 328 50.5 L 324.5 57 L 324 55.5 L 327.5 49 Z " /><path fill="rgb(252,71,35)" stroke="rgb(252,71,35)" stroke-width="1" opacity="1" d="M 317.5 70 L 312.5 76 L 317.5 70 Z " /><path fill="rgb(252,71,35)" stroke="rgb(252,71,35)" stroke-width="1" opacity="1" d="M 310.5 76 L 309.5 78 L 308 77.5 L 310.5 76 Z " /><path fill="rgb(252,71,35)" stroke="rgb(252,71,35)" stroke-width="1" opacity="1" d="M 47.5 79 L 303 79.5 L 47.5 80 L 47.5 79 Z " /><path fill="rgb(252,71,35)" stroke="rgb(252,71,35)" stroke-width="1" opacity="1" d="M 40.5 81 L 42 81.5 L 37.5 84 L 38.5 82 L 40.5 81 Z " /><path fill="rgb(252,71,35)" stroke="rgb(252,71,35)" stroke-width="1" opacity="1" d="M 35.5 84 L 31.5 89 L 35.5 84 Z " /><path fill="rgb(252,71,35)" stroke="rgb(252,71,35)" stroke-width="1" opacity="1" d="M 30.5 90 L 29.5 92 L 30.5 90 Z " /><path fill="rgb(252,71,35)" stroke="rgb(252,71,35)" stroke-width="1" opacity="1" d="M 26.5 99 L 27 103.5 L 26 103.5 L 26.5 99 Z " /><path fill="rgb(252,71,35)" stroke="rgb(252,71,35)" stroke-width="1" opacity="1" d="M 73.5 105 L 439 105.5 L 73.5 106 L 73.5 105 Z " /><path fill="rgb(252,71,35)" stroke="rgb(252,71,35)" stroke-width="1" opacity="1" d="M 63.5 109 L 59 114.5 L 57.5 117 L 58 115.5 L 63.5 109 Z " /><path fill="rgb(252,71,35)" stroke="rgb(252,71,35)" stroke-width="1" opacity="1" d="M 448.5 109 L 455 116.5 L 453 115.5 L 448.5 109 Z " /><path fill="rgb(252,71,35)" stroke="rgb(252,71,35)" stroke-width="1" opacity="1" d="M 41.5 139 L 44 139.5 L 41.5 140 L 41.5 139 Z " /><path fill="rgb(252,71,35)" stroke="rgb(252,71,35)" stroke-width="1" opacity="1" d="M 31.5 143 L 30.5 145 L 26.5 148 L 29.5 144 L 31.5 143 Z " /><path fill="rgb(252,71,35)" stroke="rgb(252,71,35)" stroke-width="1" opacity="1" d="M 467.5 197 L 470 197.5 L 467.5 198 L 467.5 197 Z " /><path fill="rgb(252,71,35)" stroke="rgb(252,71,35)" stroke-width="1" opacity="1" d="M 479.5 201 L 484 204.5 L 481.5 203 L 479.5 201 Z " /><path fill="rgb(0,0,0)" stroke="rgb(0,0,0)" stroke-width="1" opacity="0" d="M 0 0 L 512 0 L 512 512 L 0 512 L 0 0 Z M 346 9 L 335 13 L 328 20 L 308 63 L 304 67 L 48 67 L 39 69 L 27 76 Q 17 84 14 99 L 14 472 Q 16 483 22 490 Q 31 500 48 503 L 465 503 L 474 501 L 486 494 Q 495 486 498 472 L 498 40 L 495 30 L 488 19 L 475 11 L 466 9 L 346 9 Z " /><path fill="rgb(255,72,35)" stroke="rgb(255,72,35)" stroke-width="1" opacity="1" d="M 343.5 22 L 354.5 22 L 356 23.5 Q 358.1 35.9 367.5 41 L 374.5 45 L 384.5 47 L 461 47 L 461 169.5 Q 464 181.5 472.5 188 L 486 194 L 486 204.5 L 484.5 205 L 481.5 202 L 469.5 197 L 457 197 L 457 121.5 Q 454.9 113.2 448.5 109 L 438.5 105 L 73.5 105 Q 63.1 107.1 58 114.5 L 55 121.5 L 55 139 L 41.5 139 L 29.5 144 L 26.5 147 L 26 104.5 L 29 92.5 L 36.5 84 L 45.5 80 L 302.5 80 Q 313.3 78.3 318 70.5 L 340 24 L 343.5 22 Z " /><path fill="rgb(243,230,192)" stroke="rgb(243,230,192)" stroke-width="1" opacity="1" d="M 76.5 117 L 435.5 117 L 443 120 L 445 124.5 L 445 197 L 209.5 197 L 204 192.5 L 188 157.5 L 181 145 L 169.5 139 L 67 139 L 67 124.5 L 69 120 L 76.5 117 Z " /><path fill="rgb(32,29,38)" stroke="rgb(32,29,38)" stroke-width="1" opacity="0.5607843137254902" d="M 345.5 9 L 466 9.5 L 345.5 10 L 345.5 9 Z " /><path fill="rgb(32,29,38)" stroke="rgb(32,29,38)" stroke-width="1" opacity="0.5607843137254902" d="M 340.5 10 L 343 10.5 L 340.5 11 L 340.5 10 Z " /><path fill="rgb(32,29,38)" stroke="rgb(32,29,38)" stroke-width="1" opacity="0.5607843137254902" d="M 468.5 10 L 472 10.5 L 468.5 11 L 468.5 10 Z " /><path fill="rgb(32,29,38)" stroke="rgb(32,29,38)" stroke-width="1" opacity="0.5607843137254902" d="M 337.5 11 L 339 11.5 L 336.5 13 L 337.5 11 Z " /><path fill="rgb(32,29,38)" stroke="rgb(32,29,38)" stroke-width="1" opacity="0.5607843137254902" d="M 334.5 13 L 329 19.5 L 324.5 29 L 324 27.5 Q 327.2 18.2 334.5 13 Z " /><path fill="rgb(32,29,38)" stroke="rgb(32,29,38)" stroke-width="1" opacity="0.5607843137254902" d="M 480.5 14 L 486 18.5 L 482.5 16 L 480.5 14 Z " /><path fill="rgb(32,29,38)" stroke="rgb(32,29,38)" stroke-width="1" opacity="0.5607843137254902" d="M 488.5 21 L 491.5 25 L 488.5 21 Z " /><path fill="rgb(32,29,38)" stroke="rgb(32,29,38)" stroke-width="1" opacity="0.5607843137254902" d="M 492.5 26 L 495 30.5 L 494 30.5 L 492.5 26 Z " /><path fill="rgb(32,29,38)" stroke="rgb(32,29,38)" stroke-width="1" opacity="0.5607843137254902" d="M 496.5 34 L 497 36.5 L 496 36.5 L 496.5 34 Z " /><path fill="rgb(32,29,38)" stroke="rgb(32,29,38)" stroke-width="1" opacity="0.5607843137254902" d="M 497.5 39 L 498 228.5 L 497 228.5 L 497.5 39 Z " /><path fill="rgb(32,29,38)" stroke="rgb(32,29,38)" stroke-width="1" opacity="0.5607843137254902" d="M 318.5 40 L 319 41.5 L 314.5 50 L 314 48.5 L 318.5 40 Z " /><path fill="rgb(32,29,38)" stroke="rgb(32,29,38)" stroke-width="1" opacity="0.5607843137254902" d="M 309.5 59 L 310 60.5 L 304.5 67 L 308 62.5 L 309.5 59 Z " /><path fill="rgb(32,29,38)" stroke="rgb(32,29,38)" stroke-width="1" opacity="0.5607843137254902" d="M 47.5 67 L 303 67.5 L 47.5 68 L 47.5 67 Z " /><path fill="rgb(32,29,38)" stroke="rgb(32,29,38)" stroke-width="1" opacity="0.5607843137254902" d="M 41.5 68 L 45 68.5 L 41.5 69 L 41.5 68 Z " /><path fill="rgb(32,29,38)" stroke="rgb(32,29,38)" stroke-width="1" opacity="0.5607843137254902" d="M 30.5 73 L 28.5 76 L 30.5 73 Z " /><path fill="rgb(32,29,38)" stroke="rgb(32,29,38)" stroke-width="1" opacity="0.5607843137254902" d="M 26.5 76 L 22.5 81 L 26.5 76 Z " /><path fill="rgb(32,29,38)" stroke="rgb(32,29,38)" stroke-width="1" opacity="0.5607843137254902" d="M 21.5 82 L 20.5 84 L 21.5 82 Z " /><path fill="rgb(32,29,38)" stroke="rgb(32,29,38)" stroke-width="1" opacity="0.5607843137254902" d="M 19.5 85 L 19 86.5 L 17.5 90 L 17 88.5 L 19.5 85 Z " /><path fill="rgb(32,29,38)" stroke="rgb(32,29,38)" stroke-width="1" opacity="0.5607843137254902" d="M 16.5 91 L 17 92.5 L 15.5 96 L 15 93.5 L 16.5 91 Z " /><path fill="rgb(32,29,38)" stroke="rgb(32,29,38)" stroke-width="1" opacity="0.5607843137254902" d="M 14.5 98 L 15 169.5 L 14 169.5 L 14.5 98 Z " /><path fill="rgb(32,29,38)" stroke="rgb(32,29,38)" stroke-width="1" opacity="0.5607843137254902" d="M 14.5 176 L 15 471.5 L 14 471.5 L 14.5 176 Z " /><path fill="rgb(32,29,38)" stroke="rgb(32,29,38)" stroke-width="1" opacity="0.5607843137254902" d="M 497.5 235 L 498 471.5 L 497 471.5 L 497.5 235 Z " /><path fill="rgb(32,29,38)" stroke="rgb(32,29,38)" stroke-width="1" opacity="0.5607843137254902" d="M 15.5 474 L 17 478.5 L 16 478.5 L 15.5 474 Z " /><path fill="rgb(32,29,38)" stroke="rgb(32,29,38)" stroke-width="1" opacity="0.5607843137254902" d="M 17.5 480 L 20 484.5 L 18 483.5 L 17.5 480 Z " /><path fill="rgb(32,29,38)" stroke="rgb(32,29,38)" stroke-width="1" opacity="0.5607843137254902" d="M 494.5 480 L 495 481.5 L 492.5 485 L 493 483.5 L 494.5 480 Z " /><path fill="rgb(32,29,38)" stroke="rgb(32,29,38)" stroke-width="1" opacity="0.5607843137254902" d="M 20.5 486 L 21.5 488 L 20.5 486 Z " /><path fill="rgb(32,29,38)" stroke="rgb(32,29,38)" stroke-width="1" opacity="0.5607843137254902" d="M 491.5 486 L 490 488.5 L 485.5 494 L 489 489.5 L 491.5 486 Z " /><path fill="rgb(32,29,38)" stroke="rgb(32,29,38)" stroke-width="1" opacity="0.5607843137254902" d="M 22.5 489 L 26.5 494 L 22.5 489 Z " /><path fill="rgb(32,29,38)" stroke="rgb(32,29,38)" stroke-width="1" opacity="0.5607843137254902" d="M 28.5 494 L 30.5 497 L 28.5 494 Z " /><path fill="rgb(32,29,38)" stroke="rgb(32,29,38)" stroke-width="1" opacity="0.5607843137254902" d="M 483.5 494 L 481.5 497 L 483.5 494 Z " /><path fill="rgb(32,29,38)" stroke="rgb(32,29,38)" stroke-width="1" opacity="0.5607843137254902" d="M 42.5 501 L 45 501.5 L 42.5 502 L 42.5 501 Z " /><path fill="rgb(32,29,38)" stroke="rgb(32,29,38)" stroke-width="1" opacity="0.5607843137254902" d="M 467.5 501 L 471 501.5 L 467.5 502 L 467.5 501 Z " /><path fill="rgb(32,29,38)" stroke="rgb(32,29,38)" stroke-width="1" opacity="0.5607843137254902" d="M 47.5 502 L 465 502.5 L 47.5 503 L 47.5 502 Z " /><path fill="rgb(34,31,39)" stroke="rgb(34,31,39)" stroke-width="1" opacity="0.996078431372549" d="M 343.5 10 L 467.5 10 Q 480.6 12.4 488 20.5 Q 494.5 27 497 37.5 L 497 228.5 Q 499.3 229.7 498 234.5 L 497 235.5 L 497 473.5 Q 493.6 486.6 484.5 494 L 474.5 500 L 466.5 502 L 45.5 502 Q 29.9 499.1 22 488.5 L 15 473.5 L 15 176.5 Q 12.8 175.2 14 170.5 L 15 169.5 L 15 96.5 Q 18.4 83.4 27.5 76 L 37.5 70 L 45.5 68 L 302.5 68 L 309 62.5 L 329 19.5 L 335.5 13 L 343.5 10 Z M 346 21 L 343 22 L 338 27 L 318 70 Q 314 77 305 79 L 48 79 L 36 84 Q 28 89 26 100 L 27 148 Q 31 142 40 140 L 55 139 L 55 124 L 59 115 Q 63 108 72 106 L 441 106 L 448 109 Q 455 114 457 124 L 457 197 Q 475 196 485 205 L 486 206 L 486 40 L 481 30 Q 476 23 466 21 L 346 21 Z M 75 117 L 71 119 L 67 124 L 67 139 L 168 139 L 178 143 L 183 149 L 203 192 L 210 197 L 445 197 L 445 124 L 444 122 L 438 117 L 75 117 Z M 44 151 L 37 154 Q 29 159 26 169 L 26 472 L 30 481 Q 36 489 48 491 L 465 491 L 477 486 Q 484 481 486 471 L 486 229 L 482 220 Q 477 212 468 209 L 212 209 L 204 207 L 199 204 L 194 199 L 174 156 L 169 151 L 44 151 Z " /><path fill="rgb(253,193,0)" stroke="rgb(253,193,0)" stroke-width="1" opacity="1" d="M 68.5 156 L 69 160.5 L 68 160.5 L 68.5 156 Z " /><path fill="rgb(253,193,0)" stroke="rgb(253,193,0)" stroke-width="1" opacity="1" d="M 69.5 165 L 70 169.5 L 69 169.5 L 69.5 165 Z " /><path fill="rgb(253,193,0)" stroke="rgb(253,193,0)" stroke-width="1" opacity="1" d="M 70.5 173 L 71 176.5 L 70 176.5 L 70.5 173 Z " /><path fill="rgb(253,193,0)" stroke="rgb(253,193,0)" stroke-width="1" opacity="1" d="M 71.5 180 L 72 182.5 L 71 182.5 L 71.5 180 Z " /><path fill="rgb(253,193,0)" stroke="rgb(253,193,0)" stroke-width="1" opacity="1" d="M 72.5 185 L 73 187.5 L 72 187.5 L 72.5 185 Z " /><path fill="rgb(253,193,0)" stroke="rgb(253,193,0)" stroke-width="1" opacity="1" d="M 74.5 195 L 75 197.5 L 74 197.5 L 74.5 195 Z " /><path fill="rgb(253,193,0)" stroke="rgb(253,193,0)" stroke-width="1" opacity="1" d="M 195.5 201 L 198.5 205 L 195.5 201 Z " /><path fill="rgb(253,193,0)" stroke="rgb(253,193,0)" stroke-width="1" opacity="1" d="M 477.5 215 L 479.5 218 L 477.5 215 Z " /><path fill="rgb(253,193,0)" stroke="rgb(253,193,0)" stroke-width="1" opacity="1" d="M 485.5 233 L 486 378.5 L 485 378.5 L 485.5 233 Z " /><path fill="rgb(253,193,0)" stroke="rgb(253,193,0)" stroke-width="1" opacity="1" d="M 91.5 250 L 93 253.5 L 92 253.5 L 91.5 250 Z " /><path fill="rgb(253,193,0)" stroke="rgb(253,193,0)" stroke-width="1" opacity="1" d="M 95.5 259 L 97 262.5 L 96 262.5 L 95.5 259 Z " /><path fill="rgb(253,193,0)" stroke="rgb(253,193,0)" stroke-width="1" opacity="1" d="M 105.5 280 L 108 283.5 L 106 282.5 L 105.5 280 Z " /><path fill="rgb(253,193,0)" stroke="rgb(253,193,0)" stroke-width="1" opacity="1" d="M 109.5 287 L 112 290.5 L 110 289.5 L 109.5 287 Z " /><path fill="rgb(253,193,0)" stroke="rgb(253,193,0)" stroke-width="1" opacity="1" d="M 113.5 294 L 114.5 296 L 113.5 294 Z " /><path fill="rgb(253,193,0)" stroke="rgb(253,193,0)" stroke-width="1" opacity="1" d="M 115.5 297 L 118 300.5 L 116 299.5 L 115.5 297 Z " /><path fill="rgb(253,193,0)" stroke="rgb(253,193,0)" stroke-width="1" opacity="1" d="M 118.5 302 L 119.5 304 L 118.5 302 Z " /><path fill="rgb(253,193,0)" stroke="rgb(253,193,0)" stroke-width="1" opacity="1" d="M 120.5 305 L 121.5 307 L 120.5 305 Z " /><path fill="rgb(253,193,0)" stroke="rgb(253,193,0)" stroke-width="1" opacity="1" d="M 122.5 308 L 123.5 310 L 122.5 308 Z " /><path fill="rgb(253,193,0)" stroke="rgb(253,193,0)" stroke-width="1" opacity="1" d="M 124.5 311 L 126.5 314 L 124.5 311 Z " /><path fill="rgb(253,193,0)" stroke="rgb(253,193,0)" stroke-width="1" opacity="1" d="M 127.5 315 L 128.5 317 L 127.5 315 Z " /><path fill="rgb(253,193,0)" stroke="rgb(253,193,0)" stroke-width="1" opacity="1" d="M 129.5 318 L 131.5 321 L 129.5 318 Z " /><path fill="rgb(253,193,0)" stroke="rgb(253,193,0)" stroke-width="1" opacity="1" d="M 132.5 322 L 135.5 326 L 132.5 322 Z " /><path fill="rgb(253,193,0)" stroke="rgb(253,193,0)" stroke-width="1" opacity="1" d="M 136.5 327 L 139.5 331 L 136.5 327 Z " /><path fill="rgb(253,193,0)" stroke="rgb(253,193,0)" stroke-width="1" opacity="1" d="M 140.5 332 L 144.5 337 L 140.5 332 Z " /><path fill="rgb(253,193,0)" stroke="rgb(253,193,0)" stroke-width="1" opacity="1" d="M 145.5 338 L 152.5 346 L 145.5 338 Z " /><path fill="rgb(253,193,0)" stroke="rgb(253,193,0)" stroke-width="1" opacity="1" d="M 155.5 349 L 167.5 362 L 155.5 349 Z " /><path fill="rgb(253,193,0)" stroke="rgb(253,193,0)" stroke-width="1" opacity="1" d="M 171.5 364 L 177.5 371 L 171.5 364 Z " /><path fill="rgb(253,193,0)" stroke="rgb(253,193,0)" stroke-width="1" opacity="1" d="M 180.5 372 L 184.5 377 L 180.5 372 Z " /><path fill="rgb(253,193,0)" stroke="rgb(253,193,0)" stroke-width="1" opacity="1" d="M 186.5 377 L 189.5 381 L 186.5 377 Z " /><path fill="rgb(253,193,0)" stroke="rgb(253,193,0)" stroke-width="1" opacity="1" d="M 191.5 381 L 193.5 384 L 191.5 381 Z " /><path fill="rgb(253,193,0)" stroke="rgb(253,193,0)" stroke-width="1" opacity="1" d="M 195.5 384 L 197.5 387 L 195.5 384 Z " /><path fill="rgb(253,193,0)" stroke="rgb(253,193,0)" stroke-width="1" opacity="1" d="M 199.5 387 L 201.5 390 L 199.5 387 Z " /><path fill="rgb(253,193,0)" stroke="rgb(253,193,0)" stroke-width="1" opacity="1" d="M 203.5 390 L 204.5 392 L 203.5 390 Z " /><path fill="rgb(253,193,0)" stroke="rgb(253,193,0)" stroke-width="1" opacity="1" d="M 206.5 392 L 207.5 394 L 206.5 392 Z " /><path fill="rgb(253,193,0)" stroke="rgb(253,193,0)" stroke-width="1" opacity="1" d="M 209.5 394 L 210.5 396 L 209.5 394 Z " /><path fill="rgb(253,193,0)" stroke="rgb(253,193,0)" stroke-width="1" opacity="1" d="M 212.5 396 L 213.5 398 L 212.5 396 Z " /><path fill="rgb(253,193,0)" stroke="rgb(253,193,0)" stroke-width="1" opacity="1" d="M 215.5 398 L 216.5 400 L 215.5 398 Z " /><path fill="rgb(253,193,0)" stroke="rgb(253,193,0)" stroke-width="1" opacity="1" d="M 218.5 400 L 219.5 402 L 218.5 400 Z " /><path fill="rgb(253,193,0)" stroke="rgb(253,193,0)" stroke-width="1" opacity="1" d="M 223.5 403 L 224.5 405 L 223.5 403 Z " /><path fill="rgb(253,193,0)" stroke="rgb(253,193,0)" stroke-width="1" opacity="1" d="M 228.5 406 L 232 408.5 L 230.5 408 L 228.5 406 Z " /><path fill="rgb(253,193,0)" stroke="rgb(253,193,0)" stroke-width="1" opacity="1" d="M 237.5 411 L 247 416.5 L 245.5 416 L 238.5 413 L 237.5 411 Z " /><path fill="rgb(253,193,0)" stroke="rgb(253,193,0)" stroke-width="1" opacity="1" d="M 248.5 417 L 254 419.5 L 252.5 420 L 248.5 418 L 248.5 417 Z " /><path fill="rgb(253,193,0)" stroke="rgb(253,193,0)" stroke-width="1" opacity="1" d="M 320.5 442 L 323 442.5 L 320.5 443 L 320.5 442 Z " /><path fill="rgb(253,193,0)" stroke="rgb(253,193,0)" stroke-width="1" opacity="1" d="M 325.5 443 L 328 443.5 L 325.5 444 L 325.5 443 Z " /><path fill="rgb(253,193,0)" stroke="rgb(253,193,0)" stroke-width="1" opacity="1" d="M 330.5 444 L 333 444.5 L 330.5 445 L 330.5 444 Z " /><path fill="rgb(253,193,0)" stroke="rgb(253,193,0)" stroke-width="1" opacity="1" d="M 336.5 445 L 339 445.5 L 336.5 446 L 336.5 445 Z " /><path fill="rgb(253,193,0)" stroke="rgb(253,193,0)" stroke-width="1" opacity="1" d="M 342.5 446 L 346 446.5 L 342.5 447 L 342.5 446 Z " /><path fill="rgb(253,193,0)" stroke="rgb(253,193,0)" stroke-width="1" opacity="1" d="M 350.5 447 L 354 447.5 L 350.5 448 L 350.5 447 Z " /><path fill="rgb(253,193,0)" stroke="rgb(253,193,0)" stroke-width="1" opacity="1" d="M 359.5 448 L 365 448.5 L 359.5 449 L 359.5 448 Z " /><path fill="rgb(253,193,0)" stroke="rgb(253,193,0)" stroke-width="1" opacity="1" d="M 373.5 449 L 485 449.5 L 373.5 450 L 373.5 449 Z " /><path fill="rgb(254,194,0)" stroke="rgb(254,194,0)" stroke-width="1" opacity="1" d="M 68 151 L 166.5 151 L 173 155.5 L 193 198.5 L 198.5 205 L 206.5 209 L 463.5 209 Q 476.3 211.3 482 220.5 L 485 227.5 L 485 449 L 365.5 449 L 364.5 448 L 354.5 448 L 353.5 447 L 333.5 445 L 292.5 435 Q 207.1 406.4 153 346.5 Q 116.1 307.4 93 254.5 L 83 228.5 L 75 199.5 L 71 179.5 L 68 151 Z " /><path fill="rgb(169,131,12)" stroke="rgb(169,131,12)" stroke-width="1" opacity="1" d="M 463.5 21 L 466 21.5 L 463.5 22 L 463.5 21 Z " /><path fill="rgb(169,131,12)" stroke="rgb(169,131,12)" stroke-width="1" opacity="1" d="M 478.5 27 L 479.5 29 L 478.5 27 Z " /><path fill="rgb(169,131,12)" stroke="rgb(169,131,12)" stroke-width="1" opacity="1" d="M 36.5 154 L 35.5 156 L 36.5 154 Z " /><path fill="rgb(169,131,12)" stroke="rgb(169,131,12)" stroke-width="1" opacity="1" d="M 30.5 160 L 29.5 162 L 30.5 160 Z " /><path fill="rgb(169,131,12)" stroke="rgb(169,131,12)" stroke-width="1" opacity="1" d="M 26.5 168 L 27 170.5 L 26 170.5 L 26.5 168 Z " /><path fill="rgb(169,131,12)" stroke="rgb(169,131,12)" stroke-width="1" opacity="1" d="M 194.5 199 L 195.5 201 L 194.5 199 Z " /><path fill="rgb(169,131,12)" stroke="rgb(169,131,12)" stroke-width="1" opacity="1" d="M 208.5 208 L 211 208.5 L 208.5 209 L 208.5 208 Z " /><path fill="rgb(169,131,12)" stroke="rgb(169,131,12)" stroke-width="1" opacity="1" d="M 474.5 212 L 475.5 214 L 474.5 212 Z " /><path fill="rgb(169,131,12)" stroke="rgb(169,131,12)" stroke-width="1" opacity="1" d="M 485.5 468 L 486 470.5 L 485 470.5 L 485.5 468 Z " /><path fill="rgb(169,131,12)" stroke="rgb(169,131,12)" stroke-width="1" opacity="1" d="M 26.5 469 L 27 471.5 L 26 471.5 L 26.5 469 Z " /><path fill="rgb(169,131,12)" stroke="rgb(169,131,12)" stroke-width="1" opacity="1" d="M 30.5 480 L 35.5 486 L 30.5 480 Z " /><path fill="rgb(169,131,12)" stroke="rgb(169,131,12)" stroke-width="1" opacity="1" d="M 480.5 481 L 476.5 486 L 480.5 481 Z " /><path fill="rgb(169,131,12)" stroke="rgb(169,131,12)" stroke-width="1" opacity="1" d="M 474.5 486 L 473.5 488 L 474.5 486 Z " /><path fill="rgb(169,131,12)" stroke="rgb(169,131,12)" stroke-width="1" opacity="1" d="M 47.5 490 L 465 490.5 L 47.5 491 L 47.5 490 Z " /><path fill="rgb(229,175,0)" stroke="rgb(229,175,0)" stroke-width="1" opacity="1" d="M 45.5 151 L 68 151 L 68 160.5 L 69 161.5 L 71 182.5 L 78 213.5 Q 85 238.5 95 260.5 Q 122.5 320 167.5 362 Q 221.7 414.8 304.5 439 L 342.5 447 L 358.5 448 L 359.5 449 L 372.5 449 L 373.5 450 L 485 450 L 485.5 379 L 486 467.5 L 482 479.5 L 475.5 486 L 467.5 490 L 44.5 490 Q 34.8 487.3 30 479.5 L 26 468.5 L 26 171.5 Q 27.8 161.3 34.5 156 L 45.5 151 Z " /><path fill="rgb(229,175,0)" stroke="rgb(229,175,0)" stroke-width="1" opacity="1" d="M 171.5 153 L 172.5 155 L 171.5 153 Z " /><path fill="rgb(229,175,0)" stroke="rgb(229,175,0)" stroke-width="1" opacity="1" d="M 485.5 230 L 486 232.5 L 485 232.5 L 485.5 230 Z " /></svg>